<svg class="svg-icon" style="width: 1em; height: 1em;vertical-align: middle;fill: currentColor;overflow: hidden;" viewBox="0 0 1024 1024" version="1.1" xmlns="http://www.w3.org/2000/svg"><path d="M853.333333 170.666667l-682.666667 0c-47.146667 0-85.333333 38.186667-85.333333 85.333333l0 512c0 47.146667 38.186667 85.333333 85.333333 85.333333l682.666667 0c47.146667 0 85.333333-38.186667 85.333333-85.333333l0-512c0-47.146667-38.186667-85.333333-85.333333-85.333333zM170.666667 512l170.666667 0 0 85.333333-170.666667 0 0-85.333333zM597.333333 768l-426.666667 0 0-85.333333 426.666667 0 0 85.333333zM853.333333 768l-170.666667 0 0-85.333333 170.666667 0 0 85.333333zM853.333333 597.333333l-426.666667 0 0-85.333333 426.666667 0 0 85.333333z"  /></svg>