<svg class="svg-icon" style="width: 1em; height: 1em;vertical-align: middle;fill: currentColor;overflow: hidden;" viewBox="0 0 1024 1024" version="1.1" xmlns="http://www.w3.org/2000/svg"><path d="M853.333333 170.666667H170.666667c-47.146667 0-85.333333 38.186667-85.333334 85.333333v512c0 47.146667 38.186667 85.333333 85.333334 85.333333h682.666666c47.146667 0 85.333333-38.186667 85.333334-85.333333V256c0-47.146667-38.186667-85.333333-85.333334-85.333333zM330.88 693.12l-60.373333 60.373333A341.717333 341.717333 0 0 1 170.666667 512c0-87.466667 33.493333-174.72 100.053333-241.28l60.373333 60.373333A254.912 254.912 0 0 0 256 512c0 65.493333 24.96 131.2 74.88 181.12zM512 682.666667c-94.293333 0-170.666667-76.373333-170.666667-170.666667s76.373333-170.666667 170.666667-170.666667 170.666667 76.373333 170.666667 170.666667-76.373333 170.666667-170.666667 170.666667z m241.28 70.613333l-60.373333-60.373333C743.04 643.2 768 577.493333 768 512c0-65.493333-25.173333-131.2-74.88-181.12l60.373333-60.373333C819.84 337.28 853.333333 424.533333 853.333333 512c0 87.466667-33.493333 174.72-100.053333 241.28zM512 426.666667c-47.146667 0-85.333333 38.186667-85.333333 85.333333s38.186667 85.333333 85.333333 85.333333 85.333333-38.186667 85.333333-85.333333-38.186667-85.333333-85.333333-85.333333z"  /></svg>